<svg xmlns="http://www.w3.org/2000/svg" xmlns:xlink="http://www.w3.org/1999/xlink" viewBox="0 0 1248.67 1608.61"><defs><linearGradient id="linear-gradient" x1="1117.25" x2="586.76" y1="214.57" y2="1100.69" gradientUnits="userSpaceOnUse"><stop offset="0" stop-color="#93e59e"/><stop offset=".8" stop-color="#92e59e"/><stop offset="1" stop-color="#a4e8ae"/></linearGradient><linearGradient id="linear-gradient-2" x1="1020.39" x2="514.36" y1="657.55" y2="351.25" gradientUnits="userSpaceOnUse"><stop offset="0" stop-color="#959db3"/><stop offset=".35" stop-color="#bbc3df"/><stop offset="1" stop-color="#fff" stop-opacity="0"/></linearGradient><linearGradient xlink:href="#linear-gradient-2" id="linear-gradient-3" x1="795.53" x2="574.66" y1="399.98" y2="352.84"/><linearGradient id="linear-gradient-4" x1="1229.76" x2="715.13" y1="1395.12" y2="1247.02" gradientUnits="userSpaceOnUse"><stop offset="0" stop-color="#b3a790"/><stop offset=".35" stop-color="#dfdfbb"/><stop offset="1" stop-color="#fff" stop-opacity="0"/></linearGradient><linearGradient xlink:href="#linear-gradient-4" id="linear-gradient-5" x1="312.11" x2="121.83" y1="802.72" y2="747.96"/><linearGradient id="linear-gradient-6" x1="3346.65" x2="3405.35" y1="586.53" y2="536.41" gradientTransform="matrix(-1 0 0 1 4042.25 0)" gradientUnits="userSpaceOnUse"><stop offset="0" stop-color="#979db6"/><stop offset=".35" stop-color="#bbc4e0"/><stop offset="1" stop-color="#fff" stop-opacity="0"/></linearGradient><linearGradient id="linear-gradient-7" x1="791.39" x2="748.66" y1="495.76" y2="535.51" gradientUnits="userSpaceOnUse"><stop offset="0" stop-color="#63d085"/><stop offset=".38" stop-color="#5dca83"/><stop offset=".71" stop-color="#51b677"/><stop offset="1" stop-color="#409775"/></linearGradient><linearGradient xlink:href="#linear-gradient-7" id="linear-gradient-8" x1="747.25" x2="637.94" y1="520.73" y2="744.31"/><linearGradient id="linear-gradient-9" x1="569.49" x2="432.1" y1="576.25" y2="559.52" gradientUnits="userSpaceOnUse"><stop offset="0" stop-color="#4db288"/><stop offset=".45" stop-color="#6090b9"/><stop offset=".73" stop-color="#618eb7"/><stop offset="1" stop-color="#fff"/></linearGradient><linearGradient id="linear-gradient-10" x1="556.1" x2="523.25" y1="563.99" y2="562.75" gradientUnits="userSpaceOnUse"><stop offset="0" stop-color="#d9c56a"/><stop offset=".38" stop-color="#d4b163"/><stop offset=".72" stop-color="#9f6342"/><stop offset="1" stop-color="#9d6846"/></linearGradient><linearGradient xlink:href="#linear-gradient-7" id="linear-gradient-11" x1="558.33" x2="528.58" y1="528.92" y2="556.19"/><linearGradient id="linear-gradient-12" x1="518.74" x2="557.19" y1="545.76" y2="545.76" gradientUnits="userSpaceOnUse"><stop offset=".12" stop-color="#3e9266"/><stop offset=".56" stop-color="#429668"/><stop offset=".96" stop-color="#46ad61"/></linearGradient><linearGradient xlink:href="#linear-gradient-7" id="linear-gradient-13" x1="560.44" x2="529.03" y1="490.21" y2="518.31"/><linearGradient id="linear-gradient-14" x1="528.34" x2="525.86" y1="524.39" y2="486.37" gradientUnits="userSpaceOnUse"><stop offset="0" stop-color="#37814f"/><stop offset=".12" stop-color="#3e9266"/><stop offset=".56" stop-color="#429668"/><stop offset=".96" stop-color="#46ad61"/></linearGradient><linearGradient xlink:href="#linear-gradient-2" id="linear-gradient-15" x1="638.46" x2="362.84" y1="1227.68" y2="1193.47"/><linearGradient id="linear-gradient-16" x1="3340.26" x2="3421.6" y1="1104.62" y2="1050.4" gradientTransform="matrix(-1 0 0 1 3793.73 0)" gradientUnits="userSpaceOnUse"><stop offset="0" stop-color="#85bc86"/><stop offset=".35" stop-color="#a0e3a1"/><stop offset="1" stop-color="#fff" stop-opacity="0"/></linearGradient><linearGradient xlink:href="#linear-gradient-4" id="linear-gradient-17" x1="1169.2" x2="869.91" y1="225.69" y2="139.56"/><linearGradient xlink:href="#linear-gradient-2" id="linear-gradient-18" x1="947.59" x2="651.82" y1="697" y2="538.59"/><linearGradient id="linear-gradient-19" x1="556.73" x2="245.47" y1="984.42" y2="585.31" gradientUnits="userSpaceOnUse"><stop offset="0" stop-color="#b3a790"/><stop offset=".35" stop-color="#dfcdbb"/><stop offset="1" stop-color="#fff" stop-opacity="0"/></linearGradient><linearGradient xlink:href="#linear-gradient-2" id="linear-gradient-20" x1="156.79" x2="59.06" y1="859.66" y2="813.62"/><linearGradient xlink:href="#linear-gradient-9" id="linear-gradient-21" x1="1125.6" x2="995.28" y1="724.11" y2="698.05"/><linearGradient xlink:href="#linear-gradient-10" id="linear-gradient-22" x1="1091.25" x2="1058.4" y1="702.35" y2="701.11"/><linearGradient xlink:href="#linear-gradient-7" id="linear-gradient-23" x1="1093.49" x2="1063.74" y1="667.28" y2="694.55"/><linearGradient xlink:href="#linear-gradient-12" id="linear-gradient-24" x1="1053.9" x2="1092.35" y1="684.12" y2="684.12"/><linearGradient xlink:href="#linear-gradient-7" id="linear-gradient-25" x1="1095.59" x2="1064.19" y1="628.57" y2="656.67"/><linearGradient xlink:href="#linear-gradient-14" id="linear-gradient-26" x1="1063.5" x2="1061.02" y1="662.74" y2="624.73"/><linearGradient xlink:href="#linear-gradient-9" id="linear-gradient-27" x1="941.09" x2="803.7" y1="771.47" y2="754.74"/><linearGradient xlink:href="#linear-gradient-10" id="linear-gradient-28" x1="927.7" x2="894.84" y1="759.21" y2="757.97"/><linearGradient xlink:href="#linear-gradient-7" id="linear-gradient-29" x1="929.93" x2="900.18" y1="724.14" y2="751.41"/><linearGradient xlink:href="#linear-gradient-12" id="linear-gradient-30" x1="890.34" x2="928.79" y1="740.98" y2="740.98"/><linearGradient xlink:href="#linear-gradient-7" id="linear-gradient-31" x1="932.04" x2="900.63" y1="685.43" y2="713.53"/><linearGradient xlink:href="#linear-gradient-14" id="linear-gradient-32" x1="899.94" x2="897.46" y1="719.6" y2="681.59"/><linearGradient xlink:href="#linear-gradient-9" id="linear-gradient-33" x1="813.29" x2="658.2" y1="1098.93" y2="1071.28"/><linearGradient xlink:href="#linear-gradient-10" id="linear-gradient-34" x1="761.02" x2="728.17" y1="1076.08" y2="1074.84"/><linearGradient xlink:href="#linear-gradient-7" id="linear-gradient-35" x1="763.25" x2="733.5" y1="1041.01" y2="1068.28"/><linearGradient xlink:href="#linear-gradient-12" id="linear-gradient-36" x1="723.66" x2="762.11" y1="1057.85" y2="1057.85"/><linearGradient xlink:href="#linear-gradient-7" id="linear-gradient-37" x1="765.36" x2="733.95" y1="1002.3" y2="1030.4"/><linearGradient xlink:href="#linear-gradient-14" id="linear-gradient-38" x1="733.26" x2="730.78" y1="1036.47" y2="998.46"/><linearGradient xlink:href="#linear-gradient-9" id="linear-gradient-39" x1="734.45" x2="569.28" y1="1426.56" y2="1403.1"/><linearGradient xlink:href="#linear-gradient-10" id="linear-gradient-40" x1="654.22" x2="621.37" y1="1403.49" y2="1402.25"/><linearGradient xlink:href="#linear-gradient-7" id="linear-gradient-41" x1="656.45" x2="626.7" y1="1368.42" y2="1395.7"/><linearGradient xlink:href="#linear-gradient-12" id="linear-gradient-42" x1="616.86" x2="655.31" y1="1385.27" y2="1385.27"/><linearGradient xlink:href="#linear-gradient-7" id="linear-gradient-43" x1="658.56" x2="627.15" y1="1329.71" y2="1357.81"/><linearGradient xlink:href="#linear-gradient-14" id="linear-gradient-44" x1="626.46" x2="623.99" y1="1363.89" y2="1325.87"/><linearGradient xlink:href="#linear-gradient-2" id="linear-gradient-45" x1="765.69" x2="587.83" y1="708.25" y2="670.29"/><linearGradient xlink:href="#linear-gradient-4" id="linear-gradient-46" x1="513.58" x2="401.44" y1="678" y2="618.33"/><linearGradient xlink:href="#linear-gradient-2" id="linear-gradient-47" x1="677.86" x2="492.32" y1="932.1" y2="892.51"/><linearGradient xlink:href="#linear-gradient-4" id="linear-gradient-48" x1="575.43" x2="447.56" y1="568.06" y2="531.26"/><linearGradient id="linear-gradient-49" x1="471.09" x2="196.16" y1="935.81" y2="926.05" gradientUnits="userSpaceOnUse"><stop offset="0" stop-color="#4db288"/><stop offset=".44" stop-color="#618eb7"/><stop offset="1" stop-color="#fff"/></linearGradient><linearGradient xlink:href="#linear-gradient-10" id="linear-gradient-50" x1="360.61" x2="320.86" y1="925.23" y2="923.73"/><linearGradient xlink:href="#linear-gradient-7" id="linear-gradient-51" x1="368.04" x2="339.04" y1="868.44" y2="902.44"/><linearGradient xlink:href="#linear-gradient-12" id="linear-gradient-52" x1="315.46" x2="359.3" y1="898.31" y2="898.31"/><linearGradient xlink:href="#linear-gradient-7" id="linear-gradient-53" x1="363.32" x2="327.31" y1="832.97" y2="865.97"/><linearGradient xlink:href="#linear-gradient-12" id="linear-gradient-54" x1="315.4" x2="361.93" y1="853.35" y2="853.35"/><linearGradient xlink:href="#linear-gradient-7" id="linear-gradient-55" x1="365.86" x2="327.86" y1="786.12" y2="820.13"/><linearGradient xlink:href="#linear-gradient-14" id="linear-gradient-56" x1="327.03" x2="324.03" y1="827.48" y2="781.48"/><linearGradient id="linear-gradient-57" x1="599.53" x2="288.81" y1="991.77" y2="984.17" gradientUnits="userSpaceOnUse"><stop offset="0" stop-color="#4db288"/><stop offset=".65" stop-color="#618eb7"/><stop offset="1" stop-color="#fff"/></linearGradient><linearGradient xlink:href="#linear-gradient-10" id="linear-gradient-58" x1="439.58" x2="402.27" y1="980.45" y2="980.26"/><linearGradient xlink:href="#linear-gradient-7" id="linear-gradient-59" x1="447.08" x2="396.45" y1="924.53" y2="972.15"/><linearGradient xlink:href="#linear-gradient-14" id="linear-gradient-60" x1="442.15" x2="319.14" y1="913.89" y2="1022.89"/><linearGradient xlink:href="#linear-gradient-7" id="linear-gradient-61" x1="448.45" x2="399.7" y1="898.37" y2="913.37"/><linearGradient xlink:href="#linear-gradient-14" id="linear-gradient-62" x1="381.16" x2="440.04" y1="933.34" y2="875.59"/><linearGradient xlink:href="#linear-gradient-7" id="linear-gradient-63" x1="439.02" x2="406.77" y1="866.92" y2="885.35"/><linearGradient xlink:href="#linear-gradient-14" id="linear-gradient-64" x1="413.89" x2="412.14" y1="885.19" y2="871.69"/><linearGradient xlink:href="#linear-gradient-2" id="linear-gradient-65" x1="844.8" x2="703.6" y1="1393.43" y2="1403.28"/><linearGradient xlink:href="#linear-gradient-2" id="linear-gradient-66" x1="234.89" x2="127.58" y1="799.98" y2="759.24"/><linearGradient xlink:href="#linear-gradient-2" id="linear-gradient-67" x1="656.56" x2="474.25" y1="1174.27" y2="1105.06"/><linearGradient id="linear-gradient-68" x1="185.95" x2="163.97" y1="737.29" y2="758.21" gradientUnits="userSpaceOnUse"><stop offset="0" stop-color="#fcea63"/><stop offset=".23" stop-color="#fbde5c"/><stop offset=".64" stop-color="#f9be49"/><stop offset="1" stop-color="#f69c35"/></linearGradient><linearGradient id="linear-gradient-69" x1="153.75" x2="181.23" y1="770.84" y2="676.94" gradientUnits="userSpaceOnUse"><stop offset="0" stop-color="#fad557"/><stop offset=".04" stop-color="#facf54"/><stop offset=".24" stop-color="#f8b946"/><stop offset=".45" stop-color="#f7a93c"/><stop offset=".68" stop-color="#f69f37"/><stop offset="1" stop-color="#f69c35"/></linearGradient><linearGradient xlink:href="#linear-gradient-68" id="linear-gradient-70" x1="592.59" x2="568.21" y1="1086.15" y2="1109.34"/><linearGradient xlink:href="#linear-gradient-69" id="linear-gradient-71" x1="551.46" x2="581.93" y1="1144.11" y2="1040"/><linearGradient xlink:href="#linear-gradient-2" id="linear-gradient-72" x1="778.65" x2="660.18" y1="1189.83" y2="1194.81"/><style>.cls-1{isolation:isolate}.cls-79{mix-blend-mode:multiply}.cls-3{fill:#2e8069}.cls-4{fill:#3b9680}.cls-5{fill:#48ab91}.cls-79{opacity:.49}.cls-20{fill:#86a5c4}.cls-27{fill:#e2a077}.cls-75{fill:#fbe7b5}.cls-36{opacity:.54}.cls-37{fill:#dd8d4e}.cls-73{fill:#ec5e79}.cls-74{fill:#dd4f71}.cls-77{fill:#efe5c2}.cls-78{fill:#edc96a}.cls-81{fill:#c66e2d}.cls-84{fill:#ffd1a4}.cls-85{fill:#f4b160}.cls-86{fill:#cb6b48}.cls-87{fill:#ffdcbd}.cls-90{opacity:.51}.cls-112{opacity:.76}.cls-115{fill:#fad557}.cls-118{fill:#fcea63}</style></defs><g class="cls-1"><g id="Layer_2" data-name="Layer 2"><g id="Layer_1-2" data-name="Layer 1"><path fill="#86c1dd" d="m910.45 1608.61-116.25-16.59 11.29-21.98-48.33 28.65h-48.59l-110.71-87.87h-30.47l-62.45-7.56-54.41-53.99-15.8-135.34v-36.28l-141.1-46.46-14.94-39.85 11.96-56.55L170.4 973.96l-111.3 3-38.23-14.54L0 891.3l43.21-32.81 164.02-114.93 72.38-7.22 112.25-80.97v-31.96l26.32-33.33-10.68-51.63 49.61-53.39 144.07 24.76L639 485.06l-5.03-13.03 10.35-18.96-43.14-68.56 68.26-82.46 121.51 87.32-176.69 674.47 188.35 250.09 140.12 189.33z" opacity=".16" style="mix-blend-mode:multiply"/><g class="cls-1"><path d="m677.3 382.63-.2 70.44-38.1-36.76.21-70.45z" class="cls-3"/><path d="m748.37 492.43-.2 70.45-77.55-50.23.2-70.44zm-282.61 89.73-.2 70.45-28.05-58.31.2-70.45z" class="cls-3"/><path d="m1248.67 588.72-.2 70.45-67.04 33 .2-70.44z" class="cls-4"/><path d="m1181.63 621.73-.2 70.44-23.64 76.65.2-70.45z" class="cls-3"/><path d="m1157.99 698.37-.2 70.45-127.2 90.4.2-70.44z" class="cls-5"/><path d="m1030.79 788.78-.2 70.44-81.98 20.82.2-70.45z" class="cls-3"/><path d="m59.3 906.51-.2 70.45-27.07-80.77.2-70.45zm129.8-6.58-.2 70.45-82.75 16.03.2-70.45z" class="cls-4"/><path d="m106.35 915.96-.2 70.45-47.05-9.45.2-70.45zm842.46-106.37-.2 70.45-161.65 135.08.2-70.44z" class="cls-5"/><path fill="#2b7661" d="m787.16 944.68-.2 70.44-1.68 87.54.2-70.45z"/><path d="m344.71 1069.4-.2 70.45L188.9 970.38l.2-70.45z" class="cls-3"/><path d="m856.5 1059.4-.2 70.45-51.35 39.51.2-70.44z" class="cls-5"/><path d="m332.82 1148.29-.2 70.44-11.43-30.76.2-70.45z" class="cls-3"/><path d="m478.63 1207.04-.2 70.44-145.81-58.75.2-70.44z" class="cls-4"/><path d="m1022.02 1163.12-.2 70.44-105.98 47.49.2-70.44z" class="cls-5"/><path d="m494.39 1387.72-.2 70.44-30.58-101.97.2-70.44z" class="cls-3"/><path d="m1128.53 1328.76-.2 70.44-21.46 104.06.2-70.44zm-560.94 111.61-.2 70.45-73.2-52.66.2-70.44z" class="cls-4"/><path d="m648.02 1444.09-.2 70.45-80.43-3.72.2-70.45z" class="cls-5"/><path d="m757.36 1528.24-.2 70.45-109.34-84.15.2-70.45z" class="cls-4"/><path d="m830.77 1515.03-.2 70.44-73.41 13.22.2-70.45z" class="cls-5"/><path fill="url(#linear-gradient)" d="m1131.53 375.63 92.8 131.58 24.34 81.51-67.04 33.01-23.64 76.64-127.2 90.41-81.98 20.81-161.65 135.09-1.68 87.53 59.49 7.35 11.53 19.84-51.35 39.52 53.69 32.67 141.36 1.36 21.82 30.17-105.98 47.49 64.11 88.58 97.28-14.76 51.1 44.33-21.46 104.06-196.42 105.35-79.88-23.14-73.41 13.21-109.34-84.15-80.43-3.72-73.2-52.65-30.58-101.97 14.82-78.71-145.81-58.75-11.43-30.77 23.32-48.12L189.1 899.93l-82.75 16.03-47.05-9.45-27.07-80.77 55.81-53.4 207.13-14.43 73.69-54.07 47.76-34.27 5.5-45.81 43.64-41.6-28.05-58.31 51.42-47.77 123.88 55.11 135.36-38.76-77.55-50.22 6.48-59.58-38.09-36.77 51.2-61.5 80.77-18.02z"/><path d="m910.65 1538.17-.2 70.44-79.88-23.14.2-70.44z" class="cls-3"/><path d="m1107.07 1432.82-.2 70.44-196.42 105.35.2-70.44z" class="cls-5"/></g><path fill="#c18d74" d="m1094.09 322 37.54 50.95-218.23 53.56a46.9 46.9 0 0 0-16.67 7.49c-7.37 5.52-10.28 12.63-7.94 19.5l19.82 58.17c8.83 25.92-5 52.57-37.11 71.29L845.65 598c-8.71 5.08-15.35 11.37-19.16 18.2l-32.41 57.89c-6.28 11.22-5 23.28 3.75 34 11.86 14.55 17.64 30.72 16.72 46.77l-3.26 56.79c-1.13 19.94-12.54 38.94-33 55l-108.88 85.09C657 961.47 648.67 973 645.44 985a44.33 44.33 0 0 0 .18 23.91l10.08 35.42c5.13 18 3.56 36-4.62 53.52l-21.52 46.11-14.42 45.04c-3 9.27-.92 18.7 5.9 27.29l44.18 55.59a52.6 52.6 0 0 0 15.06 12.52 82 82 0 0 0 12.87 5.94l264.34 97-50.8 46.76-264.35-97a188 188 0 0 1-29.34-13.6c-14.26-8.24-26-17.91-34.46-28.64l-44.18-55.61c-15.13-19-19.65-40-13.08-60.52l15.12-47.26 22.52-48.27a42.08 42.08 0 0 0 2.59-30.09l-10.08-35.42a76.75 76.75 0 0 1-.3-41.44c5.57-20.76 19.91-40.66 41.5-57.52l108.87-85.17c8.92-7 13.9-15.26 14.4-23.95l3.24-56.78c.42-7.31-2.21-14.67-7.6-21.29-19.15-23.49-22.08-50-8.28-74.67L735.62 599c8.4-15 23-28.84 42.12-40l25.85-15.09c9.78-5.7 14-13.82 11.31-21.71L795.08 464c-7.67-22.54 1.83-45.87 26.08-64 14.28-10.69 33.21-19.13 54.71-24.41z"/><path d="m889.2 460.12 19.8 58.17a48.3 48.3 0 0 1 2.18 9.25 47.4 47.4 0 0 0-2.59-15.92l-19.82-58.17c-.06-.16-.07-.33-.12-.5a14.3 14.3 0 0 0 .55 7.17m-67.63-53.47c14.28-10.69 33.21-19.13 54.71-24.41l218.22-53.59 33.32 45.22 3.81-.94-37.54-50.93-218.22 53.57c-21.5 5.28-40.43 13.72-54.71 24.41-21 15.68-30.88 35.25-28.23 54.84.17-17.31 10.07-34.27 28.64-48.17m-85.57 199c8.4-15 23-28.84 42.12-40L804 550.54c9.56-5.58 13.78-13.46 11.46-21.19-1 5.42-5.07 10.55-11.87 14.52L777.74 559c-19.16 11.18-33.72 25-42.12 40l-32.41 57.89c-7 12.53-9.68 25.54-8.13 38.38a63.6 63.6 0 0 1 8.54-31.71zm-90 409.88 10.11 35.47a76 76 0 0 1 2.52 12.89 75.3 75.3 0 0 0-2.93-19.56l-10.08-35.42a46 46 0 0 1-1.3-6.19 44.6 44.6 0 0 0 1.68 12.81m152.24-300.8c9.35 11.48 14.91 24 16.39 36.6 0-14.89-5.8-29.77-16.8-43.27a33.15 33.15 0 0 1-7.18-14.73c-.46 7.31 2.08 14.67 7.59 21.4m-176.79 508.21 44.18 55.58a52.4 52.4 0 0 0 15.06 12.48 81.3 81.3 0 0 0 12.87 6l258.86 95 5.07-4.67-264.34-97a82 82 0 0 1-12.87-5.94 52.6 52.6 0 0 1-15.06-12.52l-44.22-55.6a32.2 32.2 0 0 1-6.72-14.1c-.45 7.12 1.94 14.19 7.17 20.77m-69.97-240.02c5.58-20.76 19.92-40.66 41.51-57.52l108.87-85.18c8.92-7 13.9-15.25 14.4-23.94l3.24-56.79a26.6 26.6 0 0 0-.43-6.35l-3.22 56.47c-.5 8.69-5.48 17-14.4 23.95l-108.87 85.17c-21.59 16.86-35.93 36.76-41.51 57.52a76.7 76.7 0 0 0-2.26 27.82 77.3 77.3 0 0 1 2.67-21.15m-14.72 155.22 22.52-48.28a42.26 42.26 0 0 0 3.8-24.24 43.6 43.6 0 0 1-4.21 17.58l-22.52 48.27-15.12 47.26a59.4 59.4 0 0 0-2.5 25.22 60.1 60.1 0 0 1 2.91-18.55z" opacity=".3" style="fill:#b78069"/><path fill="url(#linear-gradient-2)" d="m1068.6 485.84-396.73-53.28-1.05 9.65 77.55 50.22-135.36 38.76-123.88-55.11-39.62 36.81 615.05 115.94z" opacity=".49" style="mix-blend-mode:multiply"/><path fill="url(#linear-gradient-3)" d="m822.77 384.98-29.82 37.91-118.85-10.86 3.2-29.4-38.09-36.77 95.85 3.25z" opacity=".49" style="mix-blend-mode:multiply"/><path fill="url(#linear-gradient-4)" d="m1059.66 1351.66-130.28-43.93 5.22-3.04 130.82 44.18z" opacity=".56" style="mix-blend-mode:multiply"/><path fill="url(#linear-gradient-5)" d="m245.03 790.35-43.44-21.83 5.22-3.04 43.97 22.09z" opacity=".56" style="mix-blend-mode:multiply"/><path fill="url(#linear-gradient-6)" d="m590.85 565.63 115.31 46.21 42.01-48.96-40.26-22.53z" opacity=".5" style="mix-blend-mode:multiply"/><path fill="url(#linear-gradient-7)" d="m706.16 519.42 53.33 61.63-53.33 30.79-53.32-30.79z"/><path fill="url(#linear-gradient-8)" d="m759.49 581.05-53.33 30.79v-92.42z"/><path fill="url(#linear-gradient-9)" d="M547.19 568.52a9.75 9.75 0 0 0-5.17-2.29l-20.36-2.11c-2.9-4.63-9-9.55-16.81-11.26a38.3 38.3 0 0 0-10.29-.59 115 115 0 0 0-15.16 2.06l-.3-.21a22.7 22.7 0 0 0-14.1-3.84c-4.2.16-9.49 1.28-11.69 3.92-8 9.64 3.65 17.75 3.65 17.75.31.17.52.27.53.27l.77.39.61.3c.8.38 1.66.78 2.68 1.22a57.8 57.8 0 0 0 12.28 4.06c4.74.85 7.12-.24 10.28-1.64.36.19.73.36 1.44.69l.78.35c7 3.13 16.77 7 24.9 7a16.2 16.2 0 0 0 9.27-2.53 23 23 0 0 0 2.64-3.6l19.52 1.69c3.5.51 8.39-.42 7.59-5-.25-1.63-1.47-5.28-3.06-6.63" opacity=".27" style="mix-blend-mode:multiply"/><g class="cls-1"><path fill="url(#linear-gradient-10)" d="m535 547.63.08 27.17c0 1.27.84 2.54 2.51 3.51a13.45 13.45 0 0 0 12.23 0c1.71-1 2.56-2.28 2.56-3.57l-.08-27.16c0 1.29-.85 2.59-2.55 3.57a13.48 13.48 0 0 1-12.23 0c-1.64-.97-2.47-2.24-2.52-3.52"/><path d="M537.6 544.07c-3.39 1.95-3.41 5.12 0 7.08a13.48 13.48 0 0 0 12.23 0c3.38-2 3.41-5.13 0-7.09a13.48 13.48 0 0 0-12.23.01" class="cls-20"/></g><path fill="url(#linear-gradient-11)" d="M519 550.16c-1.64-11 4.18-24.83 11-31.92 6.47-6.7 17.52-7 25-1.84 8.77 6.06 14 22.17 13.69 32.39-.57 21.52-35.34 24.78-46.29 10a18.9 18.9 0 0 1-3.4-8.63"/><path fill="url(#linear-gradient-12)" d="M523.1 528.58a48 48 0 0 1 2.2-4.08 24 24 0 0 0 2.48 1.79 23 23 0 0 0 2.2 1.2c.5.24 1 .47 1.52.67 7.2 2.83 17.67 3.08 25.69-.45-12.77 7.91-24.72 9.53-25.56 14.6-.44 5.5-1 11.14-.29 16.41.46 3.55 2.06 6.79 5 8.3-5.68-1.27-10.78-4-13.91-8.27a18.9 18.9 0 0 1-3.39-8.59c-1.04-6.89.84-14.85 4.06-21.58"/><path fill="url(#linear-gradient-13)" d="M518.93 513a28.8 28.8 0 0 1 .43-7.8c1.51-8.72 4.64-18.34 11.35-24.48a19.69 19.69 0 0 1 24.84-1.18c7.89 6 11.46 18 12.77 27.35a21.5 21.5 0 0 1-.58 10.13c-4.81 13.62-24.71 15.71-36.24 11.17-5.5-2.16-10.36-6.52-12-12.19a17 17 0 0 1-.57-3"/><path fill="url(#linear-gradient-14)" d="M519.36 505.17a63 63 0 0 1 3.07-11.57 11 11 0 0 1 1.64-2.21 4.23 4.23 0 0 1 5.33-.92c3.44 2.32 2.6 7.38 2.36 10.83-.46 6.52-1.52 13.43-.74 19.79.49 4 2.5 7.58 6.36 8.68a30 30 0 0 1-5.88-1.61c-5.5-2.16-10.36-6.52-12-12.19a17 17 0 0 1-.57-3 28.8 28.8 0 0 1 .43-7.8"/><path fill="url(#linear-gradient-15)" d="m547.43 1258.3-73.31-27.94-5.15 27.94-56-73.65 66.68-22 29.86-2.63z" opacity=".49" style="mix-blend-mode:multiply"/><path fill="url(#linear-gradient-16)" d="M368.52 1061c-22.86 14.19-15.43 36 16.89 47.63 31.39 11.3 72.15 7.83 90.93-6.73 17.83-13.82 9.83-33.17-17.7-44.11-28.29-11.22-68.49-10.19-90.12 3.21" style="mix-blend-mode:multiply"/><circle cx="447.55" cy="1064.31" r="48.7" class="cls-27"/><path fill="#d38e6c" d="m421.39 1023.23-.07.06c-15.87 13.83-15.12 39.71 2.59 58.19 18.44 19.24 47.42 22.49 63.7 6.89a32.1 32.1 0 0 0 5.56-7 48.7 48.7 0 1 1-71.78-58.12z" opacity=".58"/><ellipse cx="465.56" cy="1042.89" fill="#fbe7b5" opacity=".43" rx="10.85" ry="14.17" transform="rotate(-41.67 465.58 1042.91)"/><path fill="#f9efcf" d="m1195.1 200.65-125.11 72.7-125.92-72.7 125.11-72.71z"/><path fill="url(#linear-gradient-17)" d="m1066.61 205.96-70.85-35.45 5.22-3.03 71.38 35.69z" opacity=".56" style="mix-blend-mode:multiply"/><path fill="#eee4c1" d="M1195.03 200.59 1194 564.4l-125.11 72.7 1.04-363.8z"/><path fill="#d5b885" d="m944 200.59-1.03 363.81 125.92 72.7 1.04-363.8z"/><g opacity=".43" style="mix-blend-mode:multiply"><g class="cls-36"><path d="m1025.32 551.64-.03 10.3-50.6-29.21.03-10.3z" class="cls-37"/></g><g class="cls-36"><path d="m1025.32 502.4-.03 10.3-50.6-29.21.03-10.3z" class="cls-37"/></g><g class="cls-36"><path d="m1025.32 453.15-.03 10.3-50.6-29.21.03-10.3z" class="cls-37"/></g><path d="m1000.14 311.13 25.18 40.26-.14 56.07-50.49-29.15.14-56.07z" class="cls-37"/></g><path fill="url(#linear-gradient-18)" d="m974.69 584.57-162.75 7.42-83.37 37.07-12.61 33.75 44.11 60.7 168.96-2.07 98.86-105.61z" opacity=".49" style="mix-blend-mode:multiply"/><path fill="#61bbac" d="m896.25 506.48 25.24-34.45 47.34 3.29 20.37 10.52-4.2 26.95-48.52 14.2z"/><path fill="#38706e" d="m936.48 526.99-40.23-20.51-46.45 93.3 81.69 41.02z"/><path fill="#2d5b5c" d="m849.8 599.78-11.57 76.08 90.8 45.58 2.46-80.64z"/><path fill="#43857f" d="M1027.89 615.83 985 512.79l-48.52 14.2-4.99 113.81z"/><path fill="#356a68" d="m931.49 640.8-2.46 80.64 109.74-29.45-10.88-76.16z"/><path fill="#53a69f" d="m1034.04 557.89-44.84-72.05-4.2 26.95 42.89 103.04z"/><path fill="#3e7e7b" d="m1034.04 557.89-6.15 57.94 10.88 76.16 7.1-68.1z"/><path fill="url(#linear-gradient-19)" d="m582.42 772.13-50.74 141.92-302.35-104.19-14.88-46.33 80.72-5.62 85.95-62.43z" opacity=".83" style="mix-blend-mode:multiply"/><path fill="url(#linear-gradient-20)" d="m137.87 883.3-74.71-12.29-4.06-61.87 56.76-24.23-.13 45.47z" opacity=".49" style="mix-blend-mode:multiply"/><path fill="url(#linear-gradient-21)" d="M1082.35 706.88a9.75 9.75 0 0 0-5.17-2.29l-20.36-2.11c-2.9-4.63-9-9.55-16.81-11.26a38.3 38.3 0 0 0-10.29-.59 115 115 0 0 0-15.17 2.06l-.29-.21a22.8 22.8 0 0 0-14.13-3.85c-4.2.17-9.49 1.28-11.69 3.93-8 9.64 3.65 17.75 3.65 17.75l.53.27.77.39.61.3c.79.38 1.66.78 2.68 1.22a57.8 57.8 0 0 0 12.28 4.06c4.74.85 7.12-.24 10.27-1.64.37.19.74.36 1.45.69l.77.35c7 3.13 16.78 7 24.91 7a16.2 16.2 0 0 0 9.27-2.53 22.7 22.7 0 0 0 2.64-3.61l19.52 1.7c3.5.51 8.39-.42 7.59-5-.27-1.63-1.45-5.28-3.03-6.63" opacity=".27" style="mix-blend-mode:multiply"/><g class="cls-1"><path fill="url(#linear-gradient-22)" d="m1070.2 686 .08 27.17c0 1.27.84 2.54 2.51 3.51a13.45 13.45 0 0 0 12.23 0c1.71-1 2.56-2.28 2.56-3.57l-.08-27.16c0 1.29-.85 2.58-2.56 3.57a13.48 13.48 0 0 1-12.23 0c-1.71-.98-2.5-2.25-2.51-3.52"/><path d="M1072.75 682.43c-3.38 2-3.4 5.12 0 7.08a13.48 13.48 0 0 0 12.23 0c3.39-2 3.42-5.13 0-7.09a13.47 13.47 0 0 0-12.23.01" class="cls-20"/></g><path fill="url(#linear-gradient-23)" d="M1054.17 688.52c-1.64-11 4.19-24.83 11-31.92 6.47-6.7 17.52-7 25-1.84 8.77 6.06 14 22.16 13.69 32.39-.57 21.52-35.34 24.78-46.3 10a19 19 0 0 1-3.39-8.63"/><path fill="url(#linear-gradient-24)" d="M1058.26 666.94a46 46 0 0 1 2.2-4.08 22 22 0 0 0 2.48 1.79 23 23 0 0 0 2.2 1.2c.5.24 1 .46 1.51.67 7.21 2.83 17.68 3.08 25.7-.45-12.77 7.91-24.72 9.53-25.57 14.59-.43 5.51-1 11.14-.28 16.42.46 3.55 2.06 6.79 5 8.3-5.68-1.27-10.78-4-13.92-8.27a19 19 0 0 1-3.39-8.59c-1.04-6.9.81-14.85 4.07-21.58"/><path fill="url(#linear-gradient-25)" d="M1054.09 651.33a28.8 28.8 0 0 1 .43-7.8c1.51-8.72 4.64-18.34 11.35-24.48a19.69 19.69 0 0 1 24.84-1.18c7.89 6 11.46 18 12.77 27.34a21.6 21.6 0 0 1-.58 10.14c-4.81 13.62-24.71 15.7-36.25 11.17-5.49-2.16-10.35-6.52-12-12.19a16 16 0 0 1-.56-3"/><path fill="url(#linear-gradient-26)" d="M1054.52 643.53a63 63 0 0 1 3.07-11.57 11 11 0 0 1 1.64-2.21 4.23 4.23 0 0 1 5.33-.92c3.44 2.32 2.6 7.38 2.36 10.82-.46 6.52-1.52 13.44-.74 19.8.49 4 2.5 7.58 6.36 8.68a31 31 0 0 1-5.89-1.61c-5.49-2.16-10.35-6.52-12-12.19a16 16 0 0 1-.57-3 28.8 28.8 0 0 1 .44-7.8"/><path fill="url(#linear-gradient-27)" d="M918.79 763.74a9.75 9.75 0 0 0-5.17-2.29l-20.36-2.11c-2.9-4.63-9-9.55-16.81-11.26a38.3 38.3 0 0 0-10.29-.59 115 115 0 0 0-15.16 2.06l-.3-.21a22.8 22.8 0 0 0-14.13-3.85c-4.2.17-9.49 1.29-11.69 3.93-8 9.64 3.65 17.75 3.65 17.75l.53.27.77.39.61.3c.8.38 1.66.78 2.68 1.22a57.8 57.8 0 0 0 12.28 4.06c4.74.85 7.12-.24 10.28-1.64.36.19.73.36 1.44.69l.78.35c7 3.13 16.77 7 24.9 7a16.2 16.2 0 0 0 9.27-2.53 22.7 22.7 0 0 0 2.64-3.61l19.52 1.7c3.5.51 8.39-.42 7.59-5-.27-1.63-1.45-5.28-3.03-6.63" opacity=".27" style="mix-blend-mode:multiply"/><g class="cls-1"><path fill="url(#linear-gradient-28)" d="m906.64 742.85.08 27.17c0 1.27.84 2.54 2.51 3.51a13.45 13.45 0 0 0 12.23 0c1.71-1 2.56-2.28 2.56-3.57l-.08-27.16c0 1.29-.85 2.58-2.56 3.57a13.46 13.46 0 0 1-12.22 0c-1.68-.97-2.51-2.24-2.52-3.52"/><path d="M909.2 739.29c-3.39 2-3.41 5.12 0 7.08a13.46 13.46 0 0 0 12.22 0c3.39-2 3.42-5.13 0-7.09a13.48 13.48 0 0 0-12.22.01" class="cls-20"/></g><path fill="url(#linear-gradient-29)" d="M890.62 745.38c-1.64-11 4.18-24.83 11-31.92 6.47-6.7 17.52-7 25-1.84 8.77 6.06 14 22.16 13.69 32.39-.57 21.52-35.34 24.78-46.29 10a18.76 18.76 0 0 1-3.4-8.63"/><path fill="url(#linear-gradient-30)" d="M894.7 723.8a46 46 0 0 1 2.2-4.08 24 24 0 0 0 2.48 1.79 23 23 0 0 0 2.2 1.2c.5.24 1 .47 1.52.67 7.2 2.83 17.67 3.08 25.69-.45-12.77 7.91-24.72 9.53-25.56 14.59-.44 5.51-1 11.14-.29 16.42.46 3.55 2.06 6.79 5 8.3-5.68-1.27-10.78-4-13.91-8.27a18.76 18.76 0 0 1-3.39-8.59c-1.05-6.89.84-14.85 4.06-21.58"/><path fill="url(#linear-gradient-31)" d="M890.53 708.19a28.8 28.8 0 0 1 .43-7.8c1.51-8.72 4.64-18.34 11.35-24.48a19.69 19.69 0 0 1 24.84-1.18c7.89 6 11.46 18 12.77 27.34a21.6 21.6 0 0 1-.58 10.14c-4.81 13.62-24.71 15.71-36.24 11.17-5.5-2.16-10.36-6.52-12-12.19a17 17 0 0 1-.57-3"/><path fill="url(#linear-gradient-32)" d="M891 700.39a63 63 0 0 1 3-11.57 11 11 0 0 1 1.64-2.21 4.23 4.23 0 0 1 5.33-.92c3.44 2.32 2.6 7.38 2.36 10.82-.46 6.53-1.52 13.44-.74 19.8.49 4 2.5 7.58 6.36 8.68a30.6 30.6 0 0 1-5.88-1.61c-5.5-2.16-10.36-6.52-12-12.19a17 17 0 0 1-.57-3 28.8 28.8 0 0 1 .5-7.8"/><path fill="url(#linear-gradient-33)" d="M752.11 1080.61a9.7 9.7 0 0 0-5.17-2.29l-20.36-2.11c-2.9-4.63-9-9.55-16.81-11.26a38.3 38.3 0 0 0-10.29-.59 115 115 0 0 0-15.16 2.06l-.3-.21a22.8 22.8 0 0 0-14.13-3.85c-4.2.17-9.49 1.28-11.69 3.93-8 9.64 3.65 17.75 3.65 17.75l.53.27.77.39.61.3c.8.38 1.66.78 2.68 1.22a57.8 57.8 0 0 0 12.28 4.06c4.74.85 7.12-.24 10.28-1.64.36.19.73.36 1.44.68.24.12.5.23.78.35 7 3.14 16.77 7 24.9 7a16.34 16.34 0 0 0 9.27-2.53 23 23 0 0 0 2.64-3.61l19.52 1.7c3.5.5 8.39-.43 7.59-5-.27-1.63-1.44-5.23-3.03-6.62" opacity=".27" style="mix-blend-mode:multiply"/><g class="cls-1"><path fill="url(#linear-gradient-34)" d="m740 1059.72.08 27.16c0 1.28.84 2.55 2.51 3.52a13.48 13.48 0 0 0 12.23 0c1.71-1 2.56-2.28 2.56-3.57l-.08-27.16c0 1.29-.85 2.58-2.55 3.57a13.48 13.48 0 0 1-12.23 0c-1.72-.97-2.52-2.24-2.52-3.52"/><path d="M742.52 1056.15c-3.39 2-3.41 5.13 0 7.09a13.48 13.48 0 0 0 12.23 0c3.38-2 3.41-5.13 0-7.09a13.48 13.48 0 0 0-12.23 0" class="cls-20"/></g><path fill="url(#linear-gradient-35)" d="M723.94 1062.25c-1.64-11 4.18-24.83 11-31.92 6.47-6.71 17.52-7 25-1.84 8.77 6.06 14 22.16 13.69 32.39-.57 21.52-35.34 24.78-46.29 10a18.9 18.9 0 0 1-3.4-8.63"/><path fill="url(#linear-gradient-36)" d="M728 1040.66a48 48 0 0 1 2.2-4.07 24 24 0 0 0 2.48 1.79 23 23 0 0 0 2.2 1.2c.5.24 1 .46 1.52.67 7.2 2.83 17.67 3.08 25.69-.45-12.77 7.91-24.72 9.53-25.56 14.59-.44 5.51-1 11.14-.29 16.42.46 3.55 2.06 6.79 5 8.3-5.68-1.27-10.78-4-13.91-8.27a18.9 18.9 0 0 1-3.39-8.59c-1.03-6.9.86-14.85 4.06-21.59"/><path fill="url(#linear-gradient-37)" d="M723.85 1025.06a28.8 28.8 0 0 1 .43-7.8c1.51-8.72 4.64-18.34 11.35-24.48a19.7 19.7 0 0 1 24.84-1.19c7.89 6 11.46 18 12.77 27.35a21.6 21.6 0 0 1-.58 10.14c-4.81 13.62-24.71 15.7-36.24 11.17-5.5-2.17-10.36-6.52-12-12.19a17 17 0 0 1-.57-3"/><path fill="url(#linear-gradient-38)" d="M724.28 1017.26a63 63 0 0 1 3.07-11.57 11 11 0 0 1 1.64-2.21 4.21 4.21 0 0 1 5.33-.92c3.44 2.32 2.6 7.38 2.36 10.82-.46 6.52-1.52 13.44-.74 19.8.49 4 2.5 7.57 6.36 8.68a31 31 0 0 1-5.88-1.61c-5.5-2.17-10.36-6.52-12-12.19a17 17 0 0 1-.57-3 28.8 28.8 0 0 1 .43-7.8"/><path fill="url(#linear-gradient-39)" d="M645.31 1408a9.7 9.7 0 0 0-5.16-2.29l-20.37-2.11c-2.9-4.62-9-9.54-16.81-11.25a37.4 37.4 0 0 0-10.29-.59 112 112 0 0 0-15.16 2.06l-.3-.22a22.84 22.84 0 0 0-14.13-3.84c-4.19.16-9.49 1.28-11.69 3.92-8 9.65 3.65 17.75 3.65 17.75l.53.28.77.38.61.3c.8.39 1.66.78 2.68 1.23a59 59 0 0 0 12.28 4.06c4.74.84 7.12-.24 10.28-1.65.36.19.73.37 1.44.69l.78.35c7 3.14 16.77 7 24.91 7a16.3 16.3 0 0 0 9.26-2.53 23.7 23.7 0 0 0 2.64-3.61l19.52 1.69c3.5.51 8.39-.42 7.6-5-.28-1.62-1.45-5.24-3.04-6.62" opacity=".27" style="mix-blend-mode:multiply"/><g class="cls-1"><path fill="url(#linear-gradient-40)" d="m633.17 1387.14.07 27.16c0 1.27.84 2.55 2.51 3.52a13.48 13.48 0 0 0 12.23 0c1.71-1 2.56-2.28 2.56-3.57l-.08-27.17c0 1.29-.85 2.59-2.55 3.57a13.45 13.45 0 0 1-12.23 0c-1.68-.97-2.51-2.24-2.51-3.51"/><path d="M635.72 1383.57c-3.39 2-3.41 5.13 0 7.08a13.45 13.45 0 0 0 12.23 0c3.39-2 3.41-5.13 0-7.08a13.45 13.45 0 0 0-12.23 0" class="cls-20"/></g><path fill="url(#linear-gradient-41)" d="M617.14 1389.66c-1.64-11 4.18-24.83 11-31.91 6.47-6.71 17.51-7 25-1.84 8.77 6 14 22.16 13.69 32.38-.57 21.53-35.34 24.79-46.29 10a19 19 0 0 1-3.4-8.63"/><path fill="url(#linear-gradient-42)" d="M621.22 1368.08a48 48 0 0 1 2.2-4.07 22.2 22.2 0 0 0 4.68 3c.5.24 1 .47 1.52.67 7.2 2.84 17.67 3.09 25.69-.44-12.77 7.91-24.71 9.53-25.56 14.59-.44 5.51-1 11.14-.29 16.41.46 3.56 2.06 6.8 5 8.31-5.68-1.28-10.78-4-13.91-8.28a19 19 0 0 1-3.39-8.59c-1.05-6.91.84-14.87 4.06-21.6"/><path fill="url(#linear-gradient-43)" d="M617.05 1352.47a28.8 28.8 0 0 1 .43-7.8c1.51-8.71 4.64-18.34 11.35-24.47a19.69 19.69 0 0 1 24.85-1.19c7.88 6 11.45 18 12.76 27.35a21.6 21.6 0 0 1-.58 10.14c-4.81 13.61-24.71 15.7-36.24 11.16-5.5-2.16-10.36-6.51-12-12.18a17 17 0 0 1-.57-3.01"/><path fill="url(#linear-gradient-44)" d="M617.48 1344.67a63 63 0 0 1 3.07-11.56 11.5 11.5 0 0 1 1.64-2.22 4.21 4.21 0 0 1 5.33-.91c3.45 2.32 2.61 7.37 2.36 10.82-.46 6.52-1.52 13.44-.74 19.79.49 4 2.5 7.58 6.36 8.69a30.3 30.3 0 0 1-5.88-1.62c-5.5-2.16-10.36-6.51-12-12.18a17 17 0 0 1-.57-3 28.8 28.8 0 0 1 .43-7.81"/><path d="m308.16 631.54-25.92 39.7 26.06 9.71-59.08 34.03-.14-49.4z" class="cls-73"/><path d="m249.13 665.54 1.43-.52 5.25 46.16-6.54 3.77z" class="cls-74"/><g class="cls-1"><path d="M254 788v1.9a3.55 3.55 0 0 1-2.09 2.93 11.18 11.18 0 0 1-10.18 0 3.57 3.57 0 0 1-2.12-3V788a3.58 3.58 0 0 0 2.11 2.95 11.18 11.18 0 0 0 10.18 0A3.6 3.6 0 0 0 254 788" class="cls-27"/><path d="M251.89 785c2.83 1.63 2.83 4.27 0 5.89a11.18 11.18 0 0 1-10.18 0c-2.81-1.62-2.81-4.26 0-5.89a11.22 11.22 0 0 1 10.18 0" class="cls-75"/></g><g class="cls-1"><path d="m250.53 658.45-.37 129.27a1.63 1.63 0 0 1-.95 1.33 5 5 0 0 1-4.57 0 1.62 1.62 0 0 1-1-1.33l.37-129.27a1.63 1.63 0 0 0 .95 1.33 5 5 0 0 0 4.57 0 1.64 1.64 0 0 0 1-1.33" class="cls-27"/><path d="M249.57 657.12c1.27.73 1.28 1.92 0 2.66a5 5 0 0 1-4.57 0c-1.26-.73-1.27-1.92 0-2.65a5 5 0 0 1 4.57-.01" class="cls-75"/></g><path d="m1148.24 0-33.81 51.79 33.99 12.66-77.06 44.4-.19-64.45z" class="cls-73"/><g class="cls-1"><path d="M1077.62 204.1v2.48c0 1.39-.91 2.77-2.73 3.82a14.63 14.63 0 0 1-13.28 0c-1.84-1.06-2.76-2.46-2.76-3.85v-2.48c0 1.39.91 2.79 2.76 3.85a14.63 14.63 0 0 0 13.28 0c1.81-1.05 2.72-2.43 2.73-3.82" class="cls-27"/><path d="M1074.85 200.23c3.69 2.13 3.69 5.57 0 7.69a14.63 14.63 0 0 1-13.28 0c-3.67-2.12-3.67-5.56 0-7.68a14.64 14.64 0 0 1 13.28-.01" class="cls-75"/></g><path d="m1073.06 35.11-.47 168.63a2.14 2.14 0 0 1-1.25 1.73 6.59 6.59 0 0 1-6 0 2.11 2.11 0 0 1-1.24-1.74l.48-168.63a2.09 2.09 0 0 0 1.24 1.74 6.59 6.59 0 0 0 6 0 2.12 2.12 0 0 0 1.24-1.73" class="cls-27"/><path d="M1071.82 33.37c1.65 1 1.66 2.5 0 3.47a6.59 6.59 0 0 1-6 0c-1.65-1-1.66-2.51 0-3.46a6.6 6.6 0 0 1 6-.01" class="cls-75"/><path fill="url(#linear-gradient-45)" d="m789.88 685.59-29.81 37.92-111.09 4.8-14.37-39.29 67.56-39.3z" opacity=".49" style="mix-blend-mode:multiply"/><g class="cls-1"><path d="m680.8 660.78-148.65 86.39-149.62-86.39 148.65-86.38z" class="cls-77"/><path d="m532.15 747.17-.47 166.88 148.64-86.38.48-166.89z" class="cls-78"/><path d="m532.15 747.17-.47 166.88-149.62-86.38.47-166.89z" class="cls-37"/></g><path fill="url(#linear-gradient-46)" d="m539.37 649.59-7.88 53.14-139.63-47.36 49.71-28.89z" class="cls-79"/><path d="M446.59 783.61 474.98 829l-.15 51.96-56.93-32.86.15-51.96zm28.54-7.45-.02 5.79-56.93-32.87.02-5.79z" class="cls-81"/><path d="m615.38 784.42-28.39 45.39.15 51.96 56.93-32.87-.15-51.96zm-28.54-7.45.02 5.79 56.93-32.87-.02-5.79z" class="cls-37" opacity=".65"/><path fill="url(#linear-gradient-47)" d="m702.54 911.05-29.81 37.92-111.1 4.8-19.66-45.7 64.74-37.62z" opacity=".49" style="mix-blend-mode:multiply"/><g class="cls-1"><path d="m746.43 831.92-75.33 43.82-72.76-43.48 75.33-43.81z" class="cls-84"/><path d="m746.43 831.92 1.57 81.96-75.33 43.81-1.57-81.95z" class="cls-85"/><path d="m671.1 875.74 1.57 81.95-72.75-43.47-1.58-81.96z" class="cls-86"/></g><path d="m720.49 894.26 5-2.87v6.47l-5 2.87.07 9.14-7.85 4.49-.07-9.14-14.37 8.23v-5.46l13.44-32.83 8.6-4.92zm-7.85 4.49-.14-18.22-.2.12-9.71 23.85 10-5.75" class="cls-87"/><g opacity=".45" style="mix-blend-mode:overlay"><g class="cls-1"><path d="m746.43 831.92-75.33 43.82-72.76-43.48 75.33-43.81z" class="cls-84"/><path d="m746.43 831.92 1.57 81.96-75.33 43.81-1.57-81.95z" class="cls-85"/><path d="m671.1 875.74 1.57 81.95-72.75-43.47-1.58-81.96z" class="cls-86"/></g><path d="m720.49 894.26 5-2.87v6.47l-5 2.87.07 9.14-7.85 4.49-.07-9.14-14.37 8.23v-5.46l13.44-32.83 8.6-4.92zm-7.85 4.49-.14-18.22-.2.12-9.71 23.85 10-5.75" class="cls-87"/></g><g class="cls-1"><path d="m581.53 557.05-49.71 28.88-50.03-28.88 49.71-28.89z" class="cls-77"/><path d="m581.53 557.05-.33 116.79-49.71 28.89.33-116.8z" class="cls-78"/><path d="m531.82 585.93-.33 116.8-50.04-28.89.34-116.79z" class="cls-37"/></g><path fill="url(#linear-gradient-48)" d="m528.7 559.84-27.78-13.91 5.22-3.04 28.32 14.16z" opacity=".56" style="mix-blend-mode:multiply"/><path d="m590.71 401.62-25.92 39.7 26.06 9.7-59.08 34.04-.14-49.41z" class="cls-73"/><path d="m531.63 435.53 1.43-.53 5.24 46.17-6.53 3.76z" class="cls-74"/><g class="cls-1"><path d="M536.57 558.08V560a3.56 3.56 0 0 1-2.09 2.93 11.18 11.18 0 0 1-10.18 0 3.57 3.57 0 0 1-2.12-2.95v-1.9a3.58 3.58 0 0 0 2.11 3 11.21 11.21 0 0 0 10.18 0 3.61 3.61 0 0 0 2.1-3" class="cls-27"/><path d="M534.44 555.11c2.83 1.64 2.83 4.28 0 5.9a11.21 11.21 0 0 1-10.18 0c-2.81-1.62-2.81-4.26 0-5.89a11.25 11.25 0 0 1 10.18-.01" class="cls-75"/></g><g class="cls-1"><path d="m533.07 428.53-.36 129.27a1.63 1.63 0 0 1-1 1.33 5 5 0 0 1-4.57 0 1.62 1.62 0 0 1-1-1.33l.37-129.28a1.63 1.63 0 0 0 .95 1.34 5 5 0 0 0 4.57 0 1.61 1.61 0 0 0 1.04-1.33" class="cls-27"/><path d="M532.12 427.2c1.27.73 1.28 1.92 0 2.66a5 5 0 0 1-4.57 0c-1.26-.73-1.27-1.92 0-2.65a5 5 0 0 1 4.57-.01" class="cls-75"/></g><g class="cls-36"><path d="m544.44 673.55.02 5.79 28.46-16.43-.02-5.79z" class="cls-37"/></g><g class="cls-36"><path d="m544.44 651.33.02 5.79 28.46-16.43-.02-5.79z" class="cls-37"/></g><g class="cls-36"><path d="m544.44 628.73.02 5.79 28.46-16.43-.02-5.79z" class="cls-37"/></g><g class="cls-36"><path d="m544.44 606.51.02 5.79 28.46-16.43-.02-5.79z" class="cls-37"/></g><g class="cls-90"><path d="m519.18 673.55-.02 5.79-28.46-16.43.02-5.79z" class="cls-81"/></g><g class="cls-90"><path d="m519.18 651.33-.02 5.79-28.46-16.43.02-5.79z" class="cls-81"/></g><g class="cls-90"><path d="m519.18 628.73-.02 5.79-28.46-16.43.02-5.79z" class="cls-81"/></g><g class="cls-90"><path d="m519.18 606.51-.02 5.79-28.46-16.43.02-5.79z" class="cls-81"/></g><path fill="url(#linear-gradient-49)" d="M349.83 930.72a11.8 11.8 0 0 0-6.25-2.78l-24.64-2.55c-3.51-5.6-10.87-11.55-20.34-13.62a45.5 45.5 0 0 0-12.45-.71 137 137 0 0 0-18.35 2.49l-.36-.26c-5-3.64-11.4-4.87-17.1-4.65a49.4 49.4 0 0 0-13.79 2.65c-.7.24-7.09-3.74-9-4.11a23.7 23.7 0 0 0-7.5-.11c-5.55.69-12.31 2.24-14.05 6.38-.56 1.32-.37 5.26 0 6.83a14 14 0 0 0 4.92 7.51 44.4 44.4 0 0 0 10.76 6 46.6 46.6 0 0 0 8.93 3.05c3.84.78 7.11.37 9.54-1.49l.24-.2.28-.28.64.33.93.47.74.36c1 .46 2 .94 3.25 1.48a70 70 0 0 0 14.77 4.91c5.74 1 8.62-.29 12.44-2 .44.23.89.44 1.74.83l.95.43c8.47 3.79 20.3 8.48 30.14 8.45a19.7 19.7 0 0 0 11.21-3.06 28 28 0 0 0 3.19-4.37l23.62 2c4.24.62 10.15-.51 9.2-6.08-.31-1.86-1.74-6.27-3.66-7.9" opacity=".27" style="mix-blend-mode:multiply"/><g class="cls-1"><path fill="url(#linear-gradient-50)" d="m335.14 905.44.09 32.87c0 1.54 1 3.08 3 4.26a16.32 16.32 0 0 0 14.8 0c2.06-1.2 3.1-2.76 3.09-4.33l-.09-32.86c0 1.56-1 3.13-3.1 4.32a16.32 16.32 0 0 1-14.8 0c-1.98-1.18-2.99-2.7-2.99-4.26"/><path d="M338.22 901.13c-4.09 2.36-4.12 6.2-.05 8.57a16.32 16.32 0 0 0 14.8 0c4.1-2.37 4.14-6.21.06-8.58a16.31 16.31 0 0 0-14.81.01" class="cls-20"/></g><path fill="url(#linear-gradient-51)" d="M315.6 903.43c-.58-5.57.78-11.53 2.4-16.71 2.21-7.07 5.32-15.6 10.35-21.17 8.44-9.37 23.71-9.91 32.85-1.33 5.13 4.8 8.23 11.37 10.61 18 4.47 12.39 7.33 27.14-4.82 35.92-8.54 6.18-20.82 7.65-30.93 5.26-6.85-1.63-13.8-5.61-17.67-11.63a18.7 18.7 0 0 1-2.79-8.34"/><path fill="url(#linear-gradient-52)" d="M318 886.72c.54-1.73 1.14-3.55 1.8-5.39a69 69 0 0 1 3.64-8.49 26.4 26.4 0 0 0 4.11 2.82c.51.29 1 .55 1.56.81 8.89 4.3 20.67 4.76 30.19 1.33-13.69 7.86-26.17 10.4-28.27 15.57-.63 6.49-1.37 13.21-.67 19.56.55 5 3 9.49 7.66 10.86-.66-.12-1.31-.26-2-.41-6.85-1.63-13.8-5.61-17.67-11.63a18.7 18.7 0 0 1-2.79-8.32c-.56-5.57.82-11.53 2.44-16.71"/><path fill="url(#linear-gradient-53)" d="M315.74 858.67c-2-13.37 5.06-30 13.33-38.62 7.83-8.12 21.2-8.46 30.23-2.23 10.6 7.33 16.89 26.82 16.56 39.19-.68 26-42.77 30-56 12a22.9 22.9 0 0 1-4.12-10.34"/><path fill="url(#linear-gradient-54)" d="M320.68 832.55a55 55 0 0 1 2.67-4.93 26 26 0 0 0 3 2.17 34 34 0 0 0 4.49 2.26c8.72 3.43 21.39 3.73 31.09-.54C346.48 841.08 332 843 331 849.17c-.53 6.66-1.16 13.48-.34 19.86.55 4.3 2.48 8.22 6 10.05-6.88-1.54-13-4.88-16.84-10a22.9 22.9 0 0 1-4.1-10.39c-1.22-8.36 1.06-17.99 4.96-26.14"/><path fill="url(#linear-gradient-55)" d="M315.63 813.67a34.8 34.8 0 0 1 .53-9.44c1.82-10.55 5.61-22.2 13.73-29.62a23.82 23.82 0 0 1 30.11-1.44c9.54 7.26 13.87 21.76 15.45 33.1.57 4.09.68 8.37-.7 12.27-5.82 16.47-29.9 19-43.86 13.51-6.65-2.62-12.53-7.89-14.51-14.75a20.6 20.6 0 0 1-.75-3.63"/><path fill="url(#linear-gradient-56)" d="M316.16 804.23a75 75 0 0 1 3.71-14 14 14 0 0 1 2-2.68c1.64-1.69 4.31-2.54 6.44-1.11 4.17 2.81 3.16 8.93 2.86 13.1-.56 7.89-1.83 16.26-.89 24 .59 4.82 3 9.17 7.69 10.51a36.7 36.7 0 0 1-7.12-2c-6.65-2.62-12.53-7.89-14.51-14.75a20.6 20.6 0 0 1-.7-3.63 34.8 34.8 0 0 1 .52-9.44"/><path fill="url(#linear-gradient-57)" d="M282.43 978c-1.35-3 3.44-3.57 6.67-4.48 5.56-1.55 11.18-4.1 17.53-4.07 3.09 0 5.95 1.73 8.91 2 2.47.23 4.8-1.47 7.19-2.11s5.06-1.54 7.66-2.13a29.17 29.17 0 0 1 19.13 2.17l.44.2c2.52 1.26 11.35-3.11 14.65-3.86a47.6 47.6 0 0 1 16.43-.82c13.25 1.68 26 9.18 28.07 21.7 6 .61 15.8-.11 19.07 3.86a3.9 3.9 0 0 1-.05 4.79c-3.62 5.36-16.67 1.71-20.2 1.31 1.26.14-5.47 6.74-6.12 7.19a27.1 27.1 0 0 1-11.52 4.18c-14.07 2-25-4.07-36-8.4-1.36-.53-5.52.61-7.25.51a39.5 39.5 0 0 1-12.29-3.19l-6.75-2.68c-1.4-.55-5.41-3-6.77-2.65-3.66 1-8.92-.06-14.28-2.14q-6.66-2.6-13.38-5.2c-4-1.54-9.35-3.1-11-5.85a3 3 0 0 1-.14-.33" opacity=".27" style="mix-blend-mode:multiply"/><g class="cls-1"><path fill="url(#linear-gradient-58)" d="m413 962.48.08 30.32c0 1.42.94 2.84 2.81 3.92a15 15 0 0 0 13.65 0c1.9-1.1 2.85-2.54 2.85-4l-.09-30.31c0 1.44-.94 2.89-2.85 4a15.06 15.06 0 0 1-13.65 0c-1.8-1.09-2.8-2.51-2.8-3.93"/><path fill="#d29495" d="M415.89 958.5c-3.78 2.18-3.81 5.72-.05 7.91a15.06 15.06 0 0 0 13.65 0c3.78-2.19 3.81-5.73.05-7.91a15 15 0 0 0-13.65 0"/></g><path fill="url(#linear-gradient-59)" d="M381.17 962.9c0-.14-.08-.27-.12-.42a1 1 0 0 1 0-.15l-.19-.74a19.5 19.5 0 0 1-.55-5.32v-.88c0-.36 0-.72.08-1.1a1 1 0 0 0 0-.09c0-.14 0-.37.08-.68 0-.19.06-.4.11-.63a21 21 0 0 1 .78-3c0-.08.05-.16.08-.24a.3.3 0 0 0 0-.07c0-.09.07-.18.11-.28a21 21 0 0 1 .86-2l.24-.48.52-1 24-41.88.4-.64.21-.33a11 11 0 0 1 .94-1.28 12 12 0 0 1 1.21-1.38l.46-.44.12-.11c.12-.12.26-.23.4-.35l.34-.29a2 2 0 0 1 .23-.19l.1-.08.12-.1.27-.19.79-.55.48-.31c.41-.26.82-.49 1.2-.69l.15-.07c.51-.26 1-.48 1.4-.64h.06a14 14 0 0 1 1.38-.48h.12c.37-.1.87-.23 1.48-.36h.19c.45-.08.94-.16 1.48-.22h.18a17.5 17.5 0 0 1 3.93.06c.51.06 1 .15 1.58.27h.13a15 15 0 0 1 1.55.44l.26.07a15 15 0 0 1 1.76.72l1.19.6.78.47.77.51c.29.2.58.42.9.68l.22.18c.27.22.54.47.83.74l.14.12.13.14a1 1 0 0 1 .14.13 14 14 0 0 1 1.14 1.26l.17.2.18.24.2.26.2.29c.42.59.72 1.08.89 1.37l24.19 41.73.49.92.26.51.49 1a1.3 1.3 0 0 0 .07.18c.13.3.26.62.38 1l.24.71.14.4a20.3 20.3 0 0 1 .79 3.72v.27c0 .09.05.32.06.5a19.4 19.4 0 0 1 0 3.66c0 .21 0 .43-.06.64a22 22 0 0 1-.41 2.31 20.5 20.5 0 0 1-.78 2.64l-.14.33c-9.31 23.17-45.23 25.55-64.84 16.52a40.3 40.3 0 0 1-10.43-6.83 24.9 24.9 0 0 1-7.15-10.77 2 2 0 0 0-.1-.53"/><path fill="url(#linear-gradient-60)" d="M380.28 955.72v-.33c0-.36 0-.72.08-1.1a1 1 0 0 0 0-.09c0-.14 0-.37.08-.68 0-.19.06-.4.11-.63a21 21 0 0 1 .78-3c0-.08.05-.16.08-.24a.3.3 0 0 0 0-.07c0-.09.07-.18.11-.28a21 21 0 0 1 .86-2l.24-.48.52-1 9.86-17.06c4.62 6.1 12.91 9.82 20.13 11.2a55.3 55.3 0 0 0 21.62-.39c-8.31 3-17.05 5.93-25.39 8.53-6.35 2-12.4 6.15-15 12.45a18.07 18.07 0 0 0 4.58 20.39 40.6 40.6 0 0 1-10.43-6.84 24.9 24.9 0 0 1-7.15-10.77l-.13-.43-.12-.42a1 1 0 0 1 0-.15l-.19-.74a19.5 19.5 0 0 1-.55-5.32.97.97 0 0 1-.09-.55"/><path fill="url(#linear-gradient-61)" d="M390.07 923.14a17 17 0 0 1-.68-5.22v-.43a2 2 0 0 0 0-.26c0-.28 0-.56.07-.86a.2.2 0 0 1 0-.07c0-.11 0-.29.07-.56s.05-.31.09-.49a15.5 15.5 0 0 1 .61-2.32l.06-.2v-.05c0-.05 0-.14.08-.22a16 16 0 0 1 .68-1.58l.19-.38.4-.76 18.81-32.88.31-.5.17-.26a10 10 0 0 1 .73-1c.2-.26.41-.5.61-.72l.34-.36.36-.34.09-.09.31-.27.27-.23.18-.15.08-.06.1-.08.21-.15.61-.43.38-.24c.33-.2.64-.39.94-.54l.13-.06c.4-.2.77-.37 1.09-.5h.05a11 11 0 0 1 1.13-.39h.05c.29-.08.68-.18 1.16-.28h.15a12 12 0 0 1 1.16-.17h.14a14 14 0 0 1 3.09 0c.4.06.81.13 1.23.22h.11c.39.09.8.21 1.22.35l.2.06a9 9 0 0 1 1.38.56c.33.15.64.31.94.47l.61.37.6.4c.23.16.46.33.71.53l.18.15c.2.17.42.36.65.58l.11.09.1.11.11.1a13 13 0 0 1 .89 1 2 2 0 0 1 .13.16l.14.18.16.21.16.23c.33.46.56.85.7 1.07l19 32.77.38.72.21.4.38.82.06.14.3.75.19.56.1.31a16 16 0 0 1 .63 2.92v.6a16 16 0 0 1 0 2.88l-.06.5c-.05.45-.12.88-.19 1.28-3.57 18-27.9 21.32-42.65 18.51-9.08-1.84-20.08-7.4-22.9-16.9"/><path fill="url(#linear-gradient-62)" d="M389.4 917.49a2 2 0 0 0 0-.26c0-.28 0-.56.07-.86a.2.2 0 0 1 0-.07c0-.11 0-.29.07-.56s.05-.31.09-.49a15.5 15.5 0 0 1 .61-2.32l.06-.2v-.05c0-.05 0-.14.08-.22a16 16 0 0 1 .68-1.58l.19-.38.4-.76q5.24-9.13 10.45-18.27a17.4 17.4 0 0 0 4.83 4.46 27.4 27.4 0 0 0 10.46 3.58 35.4 35.4 0 0 0 15.44-1c-17 5.4-26.22 3.44-35.14 19.89-3.11 5.74-1.06 11.68 3 17-5-2.87-9.1-6.95-10.68-12.27a17 17 0 0 1-.68-5.22c.07-.13.06-.27.07-.42" opacity=".18" style="mix-blend-mode:multiply"/><path fill="url(#linear-gradient-63)" d="M400.78 889.18c-2.25-4.79-.73-9.17 1.69-13.46 3-5.36 6.09-10.71 9.12-16.06 2.66-4.68 5.09-11.41 11.63-11 5.86.39 8 6.68 10.55 11 2.8 4.91 5.64 9.81 8.46 14.72 4.52 7.87 4.75 16.31-3.66 21.51-6.08 3.77-14.16 4.61-21.13 3.56a27.4 27.4 0 0 1-10.44-3.52 16.46 16.46 0 0 1-6.22-6.75"/><path fill="url(#linear-gradient-64)" d="M402.47 875.72c3-5.36 6.09-10.71 9.12-16.06 2.66-4.68 5.09-11.41 11.63-11h.15c-5.6.59-7.09 8.57-8.95 14-2.22 6.5-4.39 12.78-6.45 18.87-1.6 4.73-2.29 9.34.58 13.77a14.6 14.6 0 0 0 1.85 2.27 21.5 21.5 0 0 1-3.42-1.72 16.46 16.46 0 0 1-6.2-6.75c-2.25-4.71-.73-9.1 1.69-13.38" opacity=".41"/><path fill="url(#linear-gradient-65)" d="m895.26 1446.64-144.05-11.82-20.24-74.64 62.03-19.87v71z" opacity=".49" style="mix-blend-mode:multiply"/><g class="cls-1"><path d="m957.76 1292.59-62.23 59.32-102.6-36.24 62.23-59.31z" class="cls-84"/><path d="m957.76 1292.59-.27 94.74-62.23 59.31.27-94.73z" class="cls-85"/><path d="m895.53 1351.91-.27 94.73-102.6-36.23.27-94.74z" class="cls-86"/></g><path d="M849.6 1362.35v31.39l8.11 2.62v3.28l-25.22-8.16v-3.28l8.36 2.71v-25.72l-8.96-.03-1.39-3.22 12.4-1.76z" class="cls-84"/><g class="cls-112"><g class="cls-1"><path d="m641.14 1156.67-93.48 21.92-38.15-54.22 93.49-21.92z" class="cls-84"/><path d="m641.14 1156.67-.23 79.71-93.48 21.92.23-79.71z" class="cls-85"/><path d="m547.66 1178.59-.23 79.71-38.14-54.22.22-79.71z" class="cls-86"/></g><path d="M596.1 1188.34q6.54-1.56 10.06 0c2.35 1 3.55 3 3.59 6a9 9 0 0 1-.79 3.84 17 17 0 0 1-2.15 3.59 30.5 30.5 0 0 1-3.09 3.43c-1.19 1.13-2.39 2.28-3.67 3.43l-9.47 8.56v.19l16.66-4v-4.18l3.85-.92.12 10.39-26.53 6.3-.06-5.24 10.38-11.82a34.8 34.8 0 0 0 4-5.35 10 10 0 0 0 1.53-5.29v-1.38c0-1.84-.58-3.1-1.68-3.81a5.65 5.65 0 0 0-4.37-.4 11.6 11.6 0 0 0-3.11 1.18v.29a3.46 3.46 0 0 1 1.4.9 2.22 2.22 0 0 1 .55 1.6 4.63 4.63 0 0 1-1 3 5.4 5.4 0 0 1-3.19 1.89 3.9 3.9 0 0 1-3.18-.36 3.07 3.07 0 0 1-1.27-2.68 5.44 5.44 0 0 1 .75-2.7 9.5 9.5 0 0 1 2.23-2.56 18 18 0 0 1 3.59-2.21 24.8 24.8 0 0 1 4.85-1.69" class="cls-84"/></g><g class="cls-112"><g class="cls-1"><path d="m207.23 743.56 22.14 52.93-91.29 12.65-22.14-52.93z" class="cls-84"/><path d="m229.37 796.49-.21 74.16-91.29 12.65.21-74.16z" class="cls-85"/><path d="m138.08 809.14-.21 74.16-22.14-52.92.21-74.17z" class="cls-86"/></g><path d="M184.88 821.89q15.24-2 15.14 6.46a6.23 6.23 0 0 1-1 3.29 12.6 12.6 0 0 1-2.64 2.9 19.8 19.8 0 0 1-3.67 2.28 20 20 0 0 1-4.07 1.44v.4a21.6 21.6 0 0 1 4.34.22 12.1 12.1 0 0 1 3.77 1.16 7 7 0 0 1 2.63 2.25 5.6 5.6 0 0 1 1 3.45 10.26 10.26 0 0 1-4.18 8c-2.77 2.23-6.87 3.7-12.33 4.42a27.6 27.6 0 0 1-5.77.23 14 14 0 0 1-4.22-.87 6 6 0 0 1-2.58-1.78 3.86 3.86 0 0 1-.85-2.51 4.54 4.54 0 0 1 1.37-3.31 5.83 5.83 0 0 1 3.51-1.64 4.5 4.5 0 0 1 3.58.7 3.23 3.23 0 0 1 1.22 2.71 3.06 3.06 0 0 1-.65 1.75 8.3 8.3 0 0 1-1.48 1.59v.31a17 17 0 0 0 4-.08 12.3 12.3 0 0 0 6-2.13 6.15 6.15 0 0 0 2-5v-1.66a4.74 4.74 0 0 0-2-4.39c-1.35-.86-3.53-1.09-6.57-.69l-3.64.48.05-3.77 3.64-.48c2.87-.38 5-1.13 6.22-2.29a5.64 5.64 0 0 0 1.92-4.27v-1.2a4.16 4.16 0 0 0-1.8-3.87 7.18 7.18 0 0 0-4.89-.78c-.76.1-1.46.22-2.11.37a7.2 7.2 0 0 0-1.65.57v.3a3 3 0 0 1 1.55 1 2.65 2.65 0 0 1 .61 1.77 4.4 4.4 0 0 1-1.26 3 5.7 5.7 0 0 1-3.57 1.63 4.67 4.67 0 0 1-3.54-.69 3.44 3.44 0 0 1-1.31-3 5.1 5.1 0 0 1 .87-2.69 8.6 8.6 0 0 1 2.54-2.47 17.7 17.7 0 0 1 4.11-2 29.6 29.6 0 0 1 5.71-1.11" class="cls-84"/></g><g class="cls-112"><g class="cls-1"><path d="m826.52 610.5-67.56 39.3-65.26-38.99 67.56-39.3z" class="cls-84"/><path d="m826.52 610.5 1.41 73.51-67.56 39.3-1.41-73.51z" class="cls-85"/><path d="m758.96 649.8 1.41 73.51-65.26-38.99-1.41-73.51z" class="cls-86"/></g><path d="m802.88 644.22.09 7.5-15.59 9.17-.58 11.28.2-.17c.27-.71.6-1.47 1-2.29a14.3 14.3 0 0 1 1.51-2.48 19 19 0 0 1 2.17-2.41 16.7 16.7 0 0 1 2.93-2.16q4.56-2.67 7.27-1.35c1.81.88 2.73 3.1 2.78 6.63a19.1 19.1 0 0 1-3.15 10.66 26.5 26.5 0 0 1-9.09 8.51 19.6 19.6 0 0 1-4.34 2 7.8 7.8 0 0 1-3.2.41 2.93 2.93 0 0 1-2-1 3.67 3.67 0 0 1-.71-2.3 7.46 7.46 0 0 1 1-3.81 7.1 7.1 0 0 1 2.62-2.77c1.18-.69 2.08-.8 2.73-.37a2.81 2.81 0 0 1 1 2.42 5.3 5.3 0 0 1-.45 2 14 14 0 0 1-1.09 2.09v.32a11 11 0 0 0 1.39-.47 13 13 0 0 0 1.55-.78 12.64 12.64 0 0 0 4.49-4.37 11.9 11.9 0 0 0 1.55-6.42v-1.34q-.07-6.66-5.4-3.53a9.7 9.7 0 0 0-2.83 2.57 13.3 13.3 0 0 0-1.78 3.14l-3.29 1.16 1-21.07z" class="cls-84"/></g><g class="cls-36"><path d="m1109.22 551.64.03 10.3 50.6-29.21-.03-10.3z" class="cls-37"/></g><g class="cls-36"><path d="m1109.22 502.4.03 10.3 50.6-29.21-.03-10.3z" class="cls-37"/></g><g class="cls-36"><path d="m1109.22 453.15.03 10.3 50.6-29.21-.03-10.3z" class="cls-37"/></g><g class="cls-36"><path d="m1109.22 403.9.03 10.3 50.6-29.21-.03-10.3z" class="cls-37"/></g><g class="cls-36"><path d="m1109.22 354.66.03 10.29 50.6-29.2-.03-10.3z" class="cls-37"/></g><g class="cls-36"><path d="m1109.22 305.41.03 10.3 50.6-29.21-.03-10.3z" class="cls-37"/></g><g class="cls-112"><g class="cls-1"><path d="m841.16 295.55-48.97 46.67-80.73-28.51 48.96-46.68z" class="cls-84"/><path d="m841.16 295.55-.21 74.55-48.97 46.67.21-74.55z" class="cls-85"/><path d="m792.19 342.22-.21 74.55-80.74-28.51.22-74.55z" class="cls-86"/></g><path d="M764.54 366.19a14.6 14.6 0 0 1 2.87 9 11 11 0 0 1-.9 4.76 7.2 7.2 0 0 1-2.78 3.2 9.64 9.64 0 0 1-4.54 1.35 18.8 18.8 0 0 1-6.19-.75 21.8 21.8 0 0 1-6.15-2.66 18.5 18.5 0 0 1-4.64-4.08 18.2 18.2 0 0 1-3-5.23 18.5 18.5 0 0 1-1.09-6.15 19.1 19.1 0 0 1 1.72-8.88 12.83 12.83 0 0 1 5-5.38 17.16 17.16 0 0 1 7.59-2.22 34.9 34.9 0 0 1 9.6.73l.89 3c-4.89-.25-8.62.54-11.23 2.36s-4 4.58-4.28 8.27l.16.1a4.3 4.3 0 0 1 1.06-1.51 5 5 0 0 1 1.84-1.05 8.8 8.8 0 0 1 2.58-.4 11.5 11.5 0 0 1 3.27.46 14.84 14.84 0 0 1 8.22 5.08m-6.54 8.32v-1.21a20.4 20.4 0 0 0-.24-3 7.5 7.5 0 0 0-.76-2.4 5.2 5.2 0 0 0-1.57-1.8 7.8 7.8 0 0 0-2.66-1.21 5.8 5.8 0 0 0-2.64-.23 2.3 2.3 0 0 0-1.54.95 4.9 4.9 0 0 0-.7 2 18.5 18.5 0 0 0-.17 2.84v1.22a20.5 20.5 0 0 0 .23 3 8 8 0 0 0 .76 2.38 5.34 5.34 0 0 0 1.57 1.82 7.9 7.9 0 0 0 2.66 1.2 5.84 5.84 0 0 0 2.64.24 2.4 2.4 0 0 0 1.55-1 4.6 4.6 0 0 0 .7-2 17.6 17.6 0 0 0 .16-2.85" class="cls-84"/></g><path fill="url(#linear-gradient-66)" d="m196.06 762.63 1.49 3.56a18.62 18.62 0 0 1-14.62 25.63l-24.63 3.41a8.53 8.53 0 0 1-9-5.16l-1.5-3.57a18.62 18.62 0 0 1 14.62-25.62l24.58-3.41a8.55 8.55 0 0 1 9.06 5.16" class="cls-79"/><path fill="url(#linear-gradient-67)" d="M592.09 1122.67c8 10.22-.45 28.41-13.28 29.31l-47.54 3.32-21.76-30.93 31.4-7.36c13.41-.62 44.46-2.93 51.18 5.66" class="cls-79"/><g class="cls-1"><path d="M177.38 752.26c4.57-2.63 8.46-.5 8.48 4.82s-4 12.07-8.54 14.7c-4.73 2.72-8.55.56-8.48-4.9-.04-5.31 3.81-11.88 8.54-14.62" class="cls-115"/><path fill="url(#linear-gradient-68)" d="M165.51 741.31c-1.55-.9-3.69-.79-6 .54-4.73 2.73-8.57 9.31-8.53 14.62 0 2.72.89 4.62 2.42 5.5l17.87 10.41c-1.52-.88-2.45-2.78-2.42-5.5 0-5.31 3.81-11.89 8.54-14.62 2.31-1.33 4.45-1.44 6-.54z"/></g><g class="cls-1"><path fill="url(#linear-gradient-69)" d="m187.15 687.47-17.87-10.41c1.72 1 2.75 3.14 2.74 6.42 0 6.23-3.63 12.59-8.31 18.67-6.88 8.86-10.83 16.06-11 32.15v1.16l17.88 10.41v-1.16c.12-16.09 4.08-23.29 11-32.15 4.69-6.08 8.3-12.44 8.32-18.67 0-3.28-1.04-5.42-2.76-6.42"/><path d="M179.36 675.26c14.78-8.51 24.95-4.94 24.91 10.12 0 10.22-4.51 19.47-11.64 28.48-6.32 8.09-9 13.95-9.12 23.44v1.15l-12.88 7.42v-1.16c.12-16.09 4.07-23.29 11-32.15 4.69-6.08 8.3-12.44 8.32-18.67 0-7-4.73-8.81-10.65-5.4a23.43 23.43 0 0 0-11.1 18.77l-13.78 7.94c.39-17.2 11.4-32.14 24.94-39.94" class="cls-115"/><path d="M180.81 661.7c-4.41-2.57-11.16-1.55-19.32 3.15-13.55 7.8-24.56 22.77-25 39.94l17.88 10.41c.44-17.17 11.45-32.14 25-39.94 8.16-4.7 14.91-5.71 19.32-3.15z" class="cls-118"/></g><g class="cls-1"><path d="M583.08 1102.75c5.07-2.92 9.39-.56 9.41 5.34s-4.4 13.38-9.47 16.3c-5.24 3-9.48.62-9.4-5.43-.04-5.89 4.22-13.19 9.46-16.21" class="cls-115"/><path fill="url(#linear-gradient-70)" d="M569.92 1090.61c-1.72-1-4.09-.88-6.65.6-5.25 3-9.51 10.32-9.47 16.21 0 3 1 5.11 2.68 6.1l19.82 11.54c-1.69-1-2.72-3.09-2.68-6.1 0-5.89 4.22-13.19 9.46-16.21 2.57-1.48 4.94-1.6 6.66-.6z"/></g><g class="cls-1"><path fill="url(#linear-gradient-71)" d="m593.92 1033.14-19.81-11.55c1.9 1.11 3 3.48 3 7.12 0 6.9-4 14-9.22 20.7-7.63 9.82-12 17.81-12.14 35.65v1.28l19.82 11.54v-1.28c.12-17.84 4.51-25.82 12.13-35.65 5.2-6.74 9.2-13.79 9.22-20.7.08-3.63-1.1-6.01-3-7.11"/><path d="M585.28 1019.6c16.39-9.44 27.66-5.48 27.62 11.22 0 11.32-5 21.58-12.9 31.57-7 9-10 15.46-10.11 26v1.29l-14.28 8.22v-1.28c.12-17.84 4.51-25.82 12.13-35.65 5.2-6.74 9.21-13.79 9.22-20.7 0-7.76-5.24-9.77-11.8-6a26 26 0 0 0-12.31 20.82l-15.28 8.79c.49-19.04 12.7-35.63 27.71-44.28" class="cls-115"/><path d="M586.88 1004.56c-4.88-2.84-12.37-1.72-21.41 3.49-15 8.65-27.23 25.25-27.72 44.28l19.82 11.54c.49-19 12.7-35.62 27.71-44.27 9.05-5.21 16.54-6.34 21.42-3.49z" class="cls-118"/></g><path d="m1122.04 1192.18-25.92 39.71 26.06 9.7-59.08 34.04-.14-49.41z" class="cls-73"/><path d="m1062.96 1226.22 1.43-.53 5.25 46.17-6.54 3.77z" class="cls-74"/><g class="cls-1"><path d="M1067.9 1348.65v1.9a3.61 3.61 0 0 1-2.1 2.93 11.24 11.24 0 0 1-10.18 0 3.6 3.6 0 0 1-2.11-3v-1.9a3.58 3.58 0 0 0 2.11 3 11.24 11.24 0 0 0 10.18 0 3.57 3.57 0 0 0 2.1-2.93" class="cls-27"/><path d="M1065.78 1345.68c2.83 1.63 2.83 4.27 0 5.9a11.24 11.24 0 0 1-10.18 0c-2.82-1.63-2.82-4.27 0-5.89a11.19 11.19 0 0 1 10.18-.01" class="cls-75"/></g><g class="cls-1"><path d="m1064.41 1219.1-.37 129.27a1.59 1.59 0 0 1-1 1.32 5 5 0 0 1-4.57 0 1.6 1.6 0 0 1-1-1.33l.36-129.27a1.61 1.61 0 0 0 1 1.33 5 5 0 0 0 4.57 0 1.62 1.62 0 0 0 1.01-1.32" class="cls-27"/><path d="M1063.46 1217.77c1.26.73 1.27 1.91 0 2.65a5 5 0 0 1-4.57 0c-1.27-.73-1.27-1.91 0-2.64a5.05 5.05 0 0 1 4.57-.01" class="cls-75"/></g><path fill="url(#linear-gradient-72)" d="M796.5 1164.49c-21.89-12.63-84.61-8.17-106.36 4.47s-21.63 33.2.25 45.84 79.45 14.32 101.2 1.68 26.8-39.35 4.91-51.99" opacity=".49" style="mix-blend-mode:multiply"/><path fill="#dd7508" d="m796.5 1164.49-.06 22.2c0-4-2.62-8-7.88-11-10.46-6-27.42-6-37.81 0-5.16 3-7.74 6.94-7.75 10.87l.06-22.19c0-3.94 2.6-7.87 7.76-10.87 10.39-6 27.35-6 37.8 0 5.27 3 7.89 7 7.88 10.99"/><path fill="#ea8511" d="m825.72 1164.58-.07 22.19c0 8.25-5.43 16.48-16.23 22.76-21.75 12.64-57.25 12.64-79.14 0-11-6.36-16.52-14.72-16.49-23.08l.06-22.19c0 8.35 5.48 16.72 16.49 23.08 21.89 12.63 57.39 12.63 79.14 0 10.81-6.28 16.21-14.52 16.24-22.76"/><path fill="#ffac45" d="M809.22 1141.5c21.89 12.63 22 33.2.26 45.84s-57.25 12.63-79.14 0-22-33.21-.26-45.84 57.25-12.64 79.14 0m-58.28 33.86c10.46 6 27.42 6 37.81 0s10.33-15.87-.13-21.9-27.41-6-37.8 0-10.33 15.86.12 21.89"/></g></g></g></svg>