<svg xmlns="http://www.w3.org/2000/svg" width="81" height="80" fill="none" viewBox="0 0 81 80"><rect width="80.078" height="80" x=".039" fill="#FFC20C" rx="8"/><mask id="a" width="81" height="80" x="0" y="0" maskUnits="userSpaceOnUse" style="mask-type:alpha"><rect width="80.078" height="80" x=".039" fill="#fff" rx="8"/></mask><g mask="url(#a)"><path fill="#fff" d="m62.844 39.721-4.14-4.806.577-6.36a1.054 1.054 0 0 0-.805-1.127l-6.122-1.417-3.204-5.493a1.03 1.03 0 0 0-1.307-.432l-5.762 2.522-5.763-2.522a1.03 1.03 0 0 0-1.306.432l-3.204 5.493-6.12 1.4c-.51.116-.855.598-.807 1.126l.576 6.359-4.142 4.825c-.341.398-.34.992.002 1.39l4.14 4.806-.577 6.381a1.054 1.054 0 0 0 .805 1.126l6.123 1.417 3.203 5.491c.267.458.828.643 1.308.43l5.762-2.537 5.762 2.521c.48.21 1.04.026 1.306-.431l3.205-5.494 6.122-1.417c.508-.117.852-.599.805-1.126l-.577-6.36 4.14-4.807a1.07 1.07 0 0 0 0-1.39"/><path fill="#FFC20C" d="m40.156 44.568 4.587 6.457a.71.71 0 0 1-.156.983.7.7 0 0 1-.406.133h-1.668a1.38 1.38 0 0 1-1.12-.579l-5.42-7.547a.7.7 0 0 1-.133-.415v-.402c0-.349.279-.632.622-.632h2.054c3.435 0 5.748-1.328 6.11-3.51H36.94c-.607 0-1.099-.5-1.099-1.115 0-.616.492-1.116 1.099-1.116h7.687c-.328-2.181-2.157-3.477-4.954-3.477h-2.578a1.245 1.245 0 0 1-1.236-1.255c0-.693.553-1.255 1.236-1.255h12.174c.625 0 1.131.515 1.131 1.149a1.14 1.14 0 0 1-1.13 1.148H45.61c1.157.754 1.916 2.263 2.072 3.69H49.3c.607 0 1.1.5 1.1 1.116s-.493 1.115-1.1 1.115h-1.653c-.483 3.117-3.59 5.512-7.163 5.512z"/><path fill="#fff" fill-rule="evenodd" d="M51.056 60.089V48.92c0-.23.093-.45.258-.612l3.32-3.265a.89.89 0 0 1 1.246 0l3.322 3.265a.86.86 0 0 1 .258.612V60.09a.873.873 0 0 1-.881.865h-6.643a.873.873 0 0 1-.88-.865" clip-rule="evenodd"/><path stroke="#FFC20C" stroke-width="1.752" d="M50.175 60.089V48.92c0-.459.186-.9.516-1.224l3.321-3.265a1.783 1.783 0 0 1 2.491 0l3.322 3.265c.33.325.516.765.516 1.224V60.09c0 .956-.79 1.731-1.762 1.731h-6.642c-.973 0-1.762-.775-1.762-1.731Z" clip-rule="evenodd"/><ellipse fill="#FFC20C" rx="1.033" ry="1.051" transform="rotate(-91.001 51.98 -2.353)skewX(-.002)"/><g opacity=".2"><path fill="#fff" d="m65.035 17.705 3.97-9.815a1 1 0 0 1 .537-.546l3.909-1.658a1 1 0 0 1 1.312.53l1.66 3.905c.103.244.106.52.006.765l-3.97 9.815c-.206.512-.79.76-1.302.553l-5.569-2.248a1 1 0 0 1-.553-1.302"/><circle r="1" fill="#39C0FF" transform="rotate(-68.981 43.454 -47.799)skewX(.038)"/><circle r="1" stroke="#fff" transform="rotate(-68.981 43.454 -47.799)skewX(.038)"/></g><g opacity=".3"><path fill="#fff" d="m20.229 74.585-4.482-6.895a1 1 0 0 1-.14-.752l.651-3.06c.115-.54.647-.885 1.188-.77l3.062.65a1 1 0 0 1 .632.434l4.482 6.894a1 1 0 0 1-.295 1.384l-3.713 2.409c-.464.3-1.084.17-1.385-.294"/><circle r="1" fill="#39C0FF" transform="rotate(-124.026 26.924 28.18)skewX(-.052)"/><circle r="1" stroke="#fff" transform="rotate(-124.026 26.924 28.18)skewX(-.052)"/></g><path fill="#fff" d="m30.329-18.496-3.529 23a1 1 0 0 1-1.672.58L5.937-12.795a1 1 0 0 1 .462-1.707l22.72-5.12a1 1 0 0 1 1.21 1.126" opacity=".2"/><ellipse cx="76.622" cy="81.825" fill="#fff" opacity=".2" rx="12.012" ry="12"/><path fill="#fff" d="m-2.126 24.63 9.407 8.98a.5.5 0 0 1-.191.837l-11.734 3.81a.5.5 0 0 1-.647-.566l2.327-12.79a.5.5 0 0 1 .838-.272M76.95 34.722l9.408 8.98a.5.5 0 0 1-.191.838l-11.734 3.809a.5.5 0 0 1-.647-.565l2.327-12.79a.5.5 0 0 1 .838-.272" opacity=".3"/></g></svg>