<svg xmlns="http://www.w3.org/2000/svg" width="81" height="80" fill="none" viewBox="0 0 81 80"><rect width="80.078" height="80" x=".011" fill="#2D3486" rx="8"/><mask id="a" width="81" height="80" x="0" y="0" maskUnits="userSpaceOnUse" style="mask-type:alpha"><path fill="#fff" d="M.011 0h80.078v80H.011z"/></mask><g mask="url(#a)"><path fill="#fff" fill-rule="evenodd" d="M32.23 54.461c0-3.56-1.25-5.066-4.303-7.895-4.356-4.023-6.344-9.713-5.475-15.607 1.163-7.734 7.713-13.973 15.578-14.844 5.16-.57 12.045.99 15.88 4.378a17.63 17.63 0 0 1 5.942 13.166c0 4.797-1.912 9.282-5.377 12.627l-.185.183-.003.003c-2.834 2.73-4.397 4.237-4.397 7.881v.592c0 1.678-1.38 3.044-3.074 3.044h-4.018c0-.642-.003-1.542-.005-2.604-.008-2.82-.019-6.781.005-10.079l5.54-5.486c.424-.42.424-1.558 0-1.977-.423-.42-1.57-.42-1.995 0l-5.084 5.044-5.095-5.044c-.423-.42-1.57-.42-1.994 0s-.424 1.558 0 1.977l5.54 5.486V58h-4.407c-1.694 0-3.074-1.366-3.074-3.044zm12.636 9.54h-7.228c-1.647 0-2.986-1.322-2.986-2.935v-.697c0-.204.165-.369.369-.369h12.462c.204 0 .37.165.37.369v.697c0 1.613-1.34 2.934-2.987 2.934" clip-rule="evenodd"/><path fill="#fff" fill-opacity=".35" d="m71.779 41.546 2.262 1.237-2.262 1.238-1.238 2.262-1.237-2.262-2.263-1.238 2.263-1.237 1.237-2.263zM18.727 58.525 23.252 61l-4.525 2.475L16.252 68l-2.475-4.525L9.252 61l4.525-2.475L16.252 54z"/><g opacity=".2"><path fill="#fff" d="M31.373 23.449s-1.621-6.423-4.155-9.195c-1.378-1.506-3.786-1.5-5.38.015s-1.768 3.964-.392 5.47c2.534 2.773 8.724 4.881 8.724 4.881.952.358 1.5-.16 1.203-1.171"/><circle r="2" stroke="#fff" transform="rotate(-68.981 35.112 -33.436)skewX(.037)"/><circle r="1" stroke="#fff" transform="rotate(-68.981 75.64 -4.208)skewX(.037)"/></g></g></svg>